<svg width="88" height="59" viewBox="0 0 88 59" fill="none" xmlns="http://www.w3.org/2000/svg">
<path fill-rule="evenodd" clip-rule="evenodd" d="M16.681 14.0301C24.3986 15.4015 35.6903 19.257 34.3174 26.9676C32.945 34.678 19.4275 43.323 11.7097 41.9515C3.99238 40.5799 -1.15096 33.2177 0.221722 25.5074C1.5944 17.7972 8.96368 12.6582 16.681 14.0301ZM20.8073 12.306C24.2726 5.02998 31.6976 0.000244141 40.2998 0.000244141C52.2152 0.000244141 61.8751 9.65092 61.8751 21.5554C61.8751 27.9786 59.0626 33.7458 54.6014 37.6948C50.7943 41.0644 45.7861 43.1107 40.2998 43.1107C35.6972 43.1107 31.432 41.67 27.9294 39.2165C32.7369 35.7305 36.54 31.2341 37.299 26.972C38.6917 19.1491 29.3903 14.5821 20.8073 12.306ZM18.0815 11.5581C15.5399 11.0745 13.3104 10.8667 10.7455 11.3903C9.8685 9.8268 9.69981 7.48435 10.4906 5.68638C11.5861 3.19472 15.0985 1.68009 17.6668 2.59229C19.5044 3.24602 20.8582 4.65872 21.4034 6.35144C20.0976 7.92513 18.9701 9.69223 18.0815 11.5581ZM81.8312 29.0553C79.1574 29.5303 75.2454 30.8662 75.721 33.5377C76.1964 36.209 80.8797 39.2041 83.5535 38.7289C86.2273 38.2537 88.0094 35.7029 87.5338 33.0316C87.0581 30.3603 84.505 28.5801 81.8312 29.0553ZM79.7717 21.3823C79.0961 24.8103 76.6985 27.4685 73.6207 28.4016C72.9799 28.5957 72.3093 28.6998 71.6201 28.7356C69.5526 27.2827 67.1878 26.2241 64.6349 25.6683C64.8143 24.481 64.9078 23.2655 64.9078 22.0282C64.9078 19.3949 64.4853 16.8608 63.7067 14.4875C63.9279 14.1691 64.1684 13.8688 64.4306 13.5906C66.6364 11.2511 70.0858 10.2884 73.4593 11.2086C77.4882 12.3076 80.5781 17.2871 79.7717 21.3823ZM45.5256 44.7228C46.179 52.4991 52.7026 58.6074 60.6555 58.6074C69.0417 58.6074 75.8404 51.8152 75.8404 43.4366C75.8404 36.1666 70.7215 30.0919 63.8883 28.6114C61.4043 36.9609 54.294 43.3203 45.5256 44.7228Z" fill="white"/>
</svg>
