<svg width="24" height="24" viewBox="0 0 24 24" fill="none" xmlns="http://www.w3.org/2000/svg">
<g clip-path="url(#clip0_1505_265)">
<path d="M23.4987 6.50732C23.3628 6.02255 23.0981 5.58367 22.7327 5.23732C22.357 4.88032 21.8965 4.62496 21.3947 4.49532C19.5167 4.00032 11.9927 4.00032 11.9927 4.00032C8.85599 3.96463 5.72009 4.12159 2.60266 4.47032C2.10085 4.60953 1.64123 4.87061 1.26466 5.23032C0.894664 5.58632 0.626664 6.02532 0.486664 6.50632C0.150357 8.31806 -0.0130439 10.1577 -0.00133594 12.0003C-0.0133359 13.8413 0.149664 15.6803 0.486664 17.4943C0.623664 17.9733 0.890664 18.4103 1.26166 18.7633C1.63266 19.1163 2.09466 19.3713 2.60266 19.5063C4.50566 20.0003 11.9927 20.0003 11.9927 20.0003C15.1333 20.0361 18.2732 19.8791 21.3947 19.5303C21.8965 19.4007 22.357 19.1453 22.7327 18.7883C23.0979 18.442 23.3623 18.0031 23.4977 17.5183C23.8428 15.7073 24.0105 13.8669 23.9987 12.0233C24.0246 10.1719 23.857 8.32288 23.4987 6.50632V6.50732ZM9.60066 15.4243V8.57732L15.8607 12.0013L9.60066 15.4243Z" fill="#DDDDDD"/>
</g>
<defs>
<clipPath id="clip0_1505_265">
<rect width="24" height="24" fill="white" transform="translate(-0.000976562 0.000244141)"/>
</clipPath>
</defs>
</svg>
