<svg width="1569" height="149" viewBox="0 0 1569 149" fill="none" xmlns="http://www.w3.org/2000/svg">
<path d="M1568.5 118.407V13.907C1499.59 5.9709 1461.28 2.01467 1396.5 0.407023C1325.34 -0.484883 1285.96 0.0488632 1216.5 2.40702C1155.49 5.33801 1123.49 7.79012 1071 13.907C1000.49 21.4977 960.722 25.8787 884 36.907L743.5 58.907L530 92.907C449.089 105.241 405.692 111.415 327 120.907C199.4 138.181 129.736 139.096 0 142.907L75 146.907C112.499 147.656 133.633 147.837 171 148.907L327 144.407L473 135.407L657.5 118.407C781.03 106.701 850.341 100.989 974 91.907C1123.99 83.6238 1209.64 85.032 1363.5 91.907C1443.61 98.6436 1488.46 104.742 1568.5 118.407Z" fill="#FF6B00"/>
</svg>
