<svg width="24" height="24" viewBox="0 0 24 24" fill="none" xmlns="http://www.w3.org/2000/svg">
<g clip-path="url(#clip0_24_942)">
<path d="M21.9834 10.8822C21.4314 10.8822 20.9835 10.4343 20.9835 9.88225C20.9835 7.07726 19.8915 4.44127 17.9084 2.45714C17.5175 2.06621 17.5175 1.43431 17.9084 1.0432C18.2994 0.652267 18.9314 0.652267 19.3224 1.0432C21.6835 3.40416 22.9834 6.54332 22.9834 9.88225C22.9834 10.4343 22.5355 10.8822 21.9834 10.8822Z" fill="white"/>
<path d="M1.98431 10.8822C1.43243 10.8822 0.984375 10.4343 0.984375 9.88225C0.984375 6.54332 2.28442 3.40416 4.64539 1.0432C5.03632 0.652267 5.6684 0.652267 6.05933 1.0432C6.45044 1.43431 6.45044 2.06621 6.05933 2.45714C4.07629 4.44017 2.98444 7.07726 2.98444 9.88225C2.98444 10.4343 2.53638 10.8822 1.98431 10.8822Z" fill="white"/>
<path d="M21.3635 16.9133C19.8514 15.6353 18.9844 13.7672 18.9844 11.7882V9.00024C18.9844 5.48132 16.3704 2.5683 12.9844 2.08032V1.00018C12.9844 0.447205 12.5364 0.000244141 11.9845 0.000244141C11.4324 0.000244141 10.9844 0.447205 10.9844 1.00018V2.08032C7.59747 2.5683 4.98438 5.48132 4.98438 9.00024V11.7882C4.98438 13.7672 4.11737 15.6353 2.5965 16.9212C2.2074 17.2543 1.98438 17.7382 1.98438 18.2502C1.98438 19.2153 2.76935 20.0003 3.7345 20.0003H20.2345C21.1995 20.0003 21.9844 19.2153 21.9844 18.2502C21.9844 17.7382 21.7614 17.2543 21.3635 16.9133Z" fill="white"/>
<path d="M11.9846 24.0002C13.7955 24.0002 15.3105 22.7092 15.6586 21.0002H8.31055C8.65845 22.7092 10.1735 24.0002 11.9846 24.0002Z" fill="white"/>
</g>
<defs>
<clipPath id="clip0_24_942">
<rect width="24" height="24" fill="white" transform="translate(0 0.000244141)"/>
</clipPath>
</defs>
</svg>
